<svg xmlns="http://www.w3.org/2000/svg" xmlns:xlink="http://www.w3.org/1999/xlink" viewBox="0 0 2267.72 1700.79"><defs><style>.cls-1{isolation:isolate;}.cls-2{fill:url(#linear-gradient);}.cls-3{fill:#fcd7ba;}.cls-4{fill:#c98348;}.cls-5{fill:#f4eac8;}.cls-6{fill:#51823b;}.cls-7{fill:url(#linear-gradient-2);}.cls-8{fill:url(#linear-gradient-3);}.cls-9{fill:#52beb8;opacity:0.15;}.cls-10{fill:url(#linear-gradient-4);}.cls-11{fill:url(#linear-gradient-5);}.cls-12{fill:url(#linear-gradient-6);}.cls-13{fill:url(#linear-gradient-7);}.cls-14{fill:url(#linear-gradient-8);}.cls-15{fill:url(#linear-gradient-9);}.cls-16{fill:url(#linear-gradient-10);}.cls-17{fill:url(#linear-gradient-11);}.cls-18{fill:url(#linear-gradient-12);}.cls-19{fill:url(#linear-gradient-13);}.cls-20{fill:url(#linear-gradient-14);}.cls-21{fill:url(#linear-gradient-15);}.cls-22{fill:url(#linear-gradient-16);}.cls-23{fill:url(#linear-gradient-17);}.cls-24{fill:url(#linear-gradient-18);}.cls-25{fill:url(#linear-gradient-19);}.cls-26{fill:url(#linear-gradient-20);}.cls-27{fill:url(#linear-gradient-21);}.cls-28{opacity:0.75;}.cls-29{fill:#ddf1f3;mix-blend-mode:multiply;}.cls-30{fill:url(#linear-gradient-22);}.cls-31{fill:url(#linear-gradient-23);}.cls-32{fill:#b68b2d;}.cls-33{fill:url(#linear-gradient-24);}.cls-34{fill:url(#linear-gradient-25);}.cls-35{fill:url(#linear-gradient-26);}.cls-36{fill:url(#linear-gradient-27);}.cls-37{fill:url(#linear-gradient-28);}.cls-38{fill:url(#linear-gradient-29);}.cls-39{fill:#f9cba2;}.cls-40{fill:url(#linear-gradient-30);}.cls-41{fill:url(#linear-gradient-31);}.cls-42{fill:#e5ad83;}.cls-43{fill:url(#linear-gradient-32);}.cls-44{fill:url(#linear-gradient-33);}.cls-45{fill:url(#linear-gradient-34);}.cls-46{fill:#654b1e;}.cls-47{fill:url(#linear-gradient-35);}.cls-48{fill:#308b85;}.cls-49{fill:url(#linear-gradient-36);}.cls-50{fill:url(#linear-gradient-37);}.cls-51{fill:url(#linear-gradient-38);}.cls-52{fill:url(#linear-gradient-39);}.cls-53{fill:url(#linear-gradient-40);}.cls-54{fill:url(#linear-gradient-41);}.cls-55{fill:url(#linear-gradient-42);}.cls-56{fill:url(#linear-gradient-43);}.cls-57{fill:url(#linear-gradient-44);}.cls-58{fill:url(#linear-gradient-45);}.cls-59{fill:url(#linear-gradient-46);}.cls-60{fill:url(#linear-gradient-47);}.cls-61{fill:url(#linear-gradient-48);}.cls-62{fill:url(#linear-gradient-49);}.cls-63{fill:url(#linear-gradient-50);}.cls-64{fill:url(#linear-gradient-51);}.cls-65{fill:url(#linear-gradient-53);}.cls-66{fill:url(#linear-gradient-54);}.cls-67{fill:url(#linear-gradient-55);}.cls-68{fill:url(#linear-gradient-56);}.cls-69{fill:url(#linear-gradient-57);}.cls-70{fill:url(#linear-gradient-58);}.cls-71{fill:url(#linear-gradient-59);}.cls-72{fill:url(#linear-gradient-60);}.cls-73{fill:url(#linear-gradient-61);}.cls-74{fill:url(#linear-gradient-62);}.cls-75{fill:url(#linear-gradient-63);}.cls-76{fill:url(#linear-gradient-64);}.cls-77{fill:url(#linear-gradient-65);}.cls-78{fill:url(#linear-gradient-66);}.cls-79{fill:url(#linear-gradient-67);}.cls-80{fill:url(#linear-gradient-68);}</style><linearGradient id="linear-gradient" x1="1133.86" y1="853.54" x2="1133.86" y2="1215.87" gradientUnits="userSpaceOnUse"><stop offset="0" stop-color="#fff"/><stop offset="1" stop-color="#ddf1f3"/></linearGradient><linearGradient id="linear-gradient-2" x1="476.95" y1="522.06" x2="458.71" y2="589.3" gradientUnits="userSpaceOnUse"><stop offset="0" stop-color="#e8e8eb"/><stop offset="1" stop-color="#d3d3d3"/></linearGradient><linearGradient id="linear-gradient-3" x1="1135.34" y1="1555.46" x2="1121.86" y2="854.65" xlink:href="#linear-gradient"/><linearGradient id="linear-gradient-4" x1="1137" y1="1245.72" x2="1104.11" y2="2462.6" xlink:href="#linear-gradient"/><linearGradient id="linear-gradient-5" x1="1497.54" y1="1255.46" x2="1464.65" y2="2472.34" xlink:href="#linear-gradient"/><linearGradient id="linear-gradient-6" x1="527.89" y1="1083.17" x2="586.07" y2="1196.13" gradientUnits="userSpaceOnUse"><stop offset="0" stop-color="#f3ce63"/><stop offset="1" stop-color="#d2a651"/></linearGradient><linearGradient id="linear-gradient-7" x1="1038.74" y1="996.36" x2="951.24" y2="1133.05" gradientTransform="matrix(-1, 0, 0, 1, 1510.5, 0)" gradientUnits="userSpaceOnUse"><stop offset="0" stop-color="#d2a651"/><stop offset="1" stop-color="#b2752c"/></linearGradient><linearGradient id="linear-gradient-8" x1="998.85" y1="1116.26" x2="947.29" y2="1237.34" xlink:href="#linear-gradient-7"/><linearGradient id="linear-gradient-9" x1="557.94" y1="1064.49" x2="566.5" y2="1113.38" gradientTransform="translate(1123.05 2178.92) rotate(180)" gradientUnits="userSpaceOnUse"><stop offset="0" stop-color="#52beb8"/><stop offset="1" stop-color="#308b85"/></linearGradient><linearGradient id="linear-gradient-10" x1="540.88" y1="1129.41" x2="519.64" y2="1050.23" gradientUnits="userSpaceOnUse"><stop offset="0" stop-color="#52beb8"/><stop offset="1" stop-color="#ddf1f3"/></linearGradient><linearGradient id="linear-gradient-11" x1="473.65" y1="1132.19" x2="502.57" y2="1206.49" xlink:href="#linear-gradient"/><linearGradient id="linear-gradient-12" x1="611.43" y1="1101.81" x2="621.31" y2="1190.39" xlink:href="#linear-gradient"/><linearGradient id="linear-gradient-13" x1="583.11" y1="1027.28" x2="623.46" y2="1158.65" xlink:href="#linear-gradient"/><linearGradient id="linear-gradient-14" x1="581.13" y1="1027.89" x2="621.48" y2="1159.26" xlink:href="#linear-gradient"/><linearGradient id="linear-gradient-15" x1="1649.29" y1="970.35" x2="1631.13" y2="1082.73" gradientUnits="userSpaceOnUse"><stop offset="0.04" stop-color="#654b1e"/><stop offset="1" stop-color="#2e1d12"/></linearGradient><linearGradient id="linear-gradient-16" x1="1689.31" y1="991.21" x2="1720.59" y2="1083.55" xlink:href="#linear-gradient"/><linearGradient id="linear-gradient-17" x1="1601.71" y1="961.34" x2="1609.71" y2="1040.27" xlink:href="#linear-gradient"/><linearGradient id="linear-gradient-18" x1="1604.11" y1="900.85" x2="1604.11" y2="986.27" xlink:href="#linear-gradient"/><linearGradient id="linear-gradient-19" x1="1621.19" y1="900.85" x2="1621.19" y2="986.27" xlink:href="#linear-gradient"/><linearGradient id="linear-gradient-20" x1="1616.74" y1="961.6" x2="1661.26" y2="887.69" gradientUnits="userSpaceOnUse"><stop offset="0" stop-color="#c98348"/><stop offset="1" stop-color="#d2a651"/></linearGradient><linearGradient id="linear-gradient-21" x1="1660.39" y1="932.39" x2="1656.93" y2="988.3" gradientTransform="translate(3319.31 1888.63) rotate(180)" xlink:href="#linear-gradient-6"/><linearGradient id="linear-gradient-22" x1="805.67" y1="364.75" x2="1200.68" y2="787.29" gradientUnits="userSpaceOnUse"><stop offset="0" stop-color="#dbe8c4"/><stop offset="1" stop-color="#aac76f"/></linearGradient><linearGradient id="linear-gradient-23" x1="1093.27" y1="704.7" x2="1533.62" y2="989.63" xlink:href="#linear-gradient-22"/><linearGradient id="linear-gradient-24" x1="1151.5" y1="360.67" x2="1114.43" y2="435.46" gradientTransform="matrix(1, 0, 0, 1, 0, 0)" xlink:href="#linear-gradient-7"/><linearGradient id="linear-gradient-25" x1="1085.08" y1="346.39" x2="1080.25" y2="360.23" xlink:href="#linear-gradient-2"/><linearGradient id="linear-gradient-26" x1="1020.6" y1="549.87" x2="1310.36" y2="764.93" xlink:href="#linear-gradient-22"/><linearGradient id="linear-gradient-27" x1="1104.79" y1="847.15" x2="1279.49" y2="765.33" xlink:href="#linear-gradient-6"/><linearGradient id="linear-gradient-28" x1="1161.91" y1="825.04" x2="1366.69" y2="740.07" xlink:href="#linear-gradient-6"/><linearGradient id="linear-gradient-29" x1="1195.53" y1="711.21" x2="1227.57" y2="773.78" xlink:href="#linear-gradient-15"/><linearGradient id="linear-gradient-30" x1="976.15" y1="351.99" x2="1000.81" y2="388.3" xlink:href="#linear-gradient-2"/><linearGradient id="linear-gradient-31" x1="887.98" y1="348.31" x2="904.88" y2="390.81" xlink:href="#linear-gradient-2"/><linearGradient id="linear-gradient-32" x1="1168.52" y1="576.5" x2="1321.2" y2="669.91" gradientTransform="matrix(1, 0, 0, 1, 0, 0)" xlink:href="#linear-gradient-9"/><linearGradient id="linear-gradient-33" x1="1091.18" y1="481.3" x2="1119.24" y2="555.94" gradientTransform="matrix(1, 0, 0, 1, 0, 0)" xlink:href="#linear-gradient-9"/><linearGradient id="linear-gradient-34" x1="1202.14" y1="308.73" x2="1276.3" y2="430.83" gradientTransform="matrix(1, 0, 0, 1, 0, 0)" xlink:href="#linear-gradient-7"/><linearGradient id="linear-gradient-35" x1="1214.3" y1="509.5" x2="1264.46" y2="565.17" gradientTransform="matrix(1, 0, 0, 1, 0, 0)" xlink:href="#linear-gradient-9"/><linearGradient id="linear-gradient-36" x1="467.1" y1="549.43" x2="470.34" y2="574.94" xlink:href="#linear-gradient"/><linearGradient id="linear-gradient-37" x1="482.87" y1="535.67" x2="486.99" y2="546.5" gradientUnits="userSpaceOnUse"><stop offset="0" stop-color="#e94e4e"/><stop offset="1" stop-color="#d33332"/></linearGradient><linearGradient id="linear-gradient-38" x1="1600.56" y1="598.79" x2="1669.19" y2="548.91" xlink:href="#linear-gradient-2"/><linearGradient id="linear-gradient-39" x1="1625.9" y1="577.86" x2="1649.99" y2="614.89" xlink:href="#linear-gradient-2"/><linearGradient id="linear-gradient-40" x1="1705.23" y1="427" x2="1774.38" y2="579.51" xlink:href="#linear-gradient-2"/><linearGradient id="linear-gradient-41" x1="1701.04" y1="419.37" x2="1765.47" y2="557.31" xlink:href="#linear-gradient"/><linearGradient id="linear-gradient-42" x1="1789.76" y1="543.59" x2="1892.93" y2="660.96" xlink:href="#linear-gradient"/><linearGradient id="linear-gradient-43" x1="806.53" y1="345.21" x2="866.84" y2="365.46" xlink:href="#linear-gradient-2"/><linearGradient id="linear-gradient-44" x1="820.43" y1="307.59" x2="852.91" y2="409.27" xlink:href="#linear-gradient"/><linearGradient id="linear-gradient-45" x1="860.62" y1="388.36" x2="924.69" y2="448.07" xlink:href="#linear-gradient-2"/><linearGradient id="linear-gradient-46" x1="853.33" y1="375.06" x2="921.1" y2="489.69" xlink:href="#linear-gradient"/><linearGradient id="linear-gradient-47" x1="801.82" y1="304.44" x2="819.25" y2="330.58" xlink:href="#linear-gradient"/><linearGradient id="linear-gradient-48" x1="1106.63" y1="811.02" x2="1199.85" y2="897.41" xlink:href="#linear-gradient-6"/><linearGradient id="linear-gradient-49" x1="1174.37" y1="727.7" x2="1184.91" y2="727.7" xlink:href="#linear-gradient"/><linearGradient id="linear-gradient-50" x1="1644.4" y1="1034.73" x2="1642.18" y2="1072.05" xlink:href="#linear-gradient-6"/><linearGradient id="linear-gradient-51" x1="1691.18" y1="903.52" x2="1691.18" y2="988.99" xlink:href="#linear-gradient"/><linearGradient id="linear-gradient-53" x1="1555.68" y1="925.91" x2="1552.21" y2="981.81" xlink:href="#linear-gradient-6"/><linearGradient id="linear-gradient-54" x1="1581.29" y1="940.24" x2="1625.8" y2="866.34" xlink:href="#linear-gradient-20"/><linearGradient id="linear-gradient-55" x1="1605.93" y1="929.02" x2="1602.47" y2="984.92" xlink:href="#linear-gradient-6"/><linearGradient id="linear-gradient-56" x1="1693.5" y1="1007.84" x2="1738.02" y2="933.93" xlink:href="#linear-gradient-20"/><linearGradient id="linear-gradient-57" x1="1708.73" y1="935.39" x2="1705.27" y2="991.29" xlink:href="#linear-gradient-6"/><linearGradient id="linear-gradient-58" x1="1656.52" y1="985.56" x2="1701.04" y2="911.65" xlink:href="#linear-gradient-20"/><linearGradient id="linear-gradient-59" x1="532.36" y1="1163.72" x2="565.93" y2="1255.55" gradientTransform="matrix(1, 0, 0, 1, 0, 0)" xlink:href="#linear-gradient-9"/><linearGradient id="linear-gradient-60" x1="453.75" y1="1071.74" x2="488.38" y2="1178.07" xlink:href="#linear-gradient"/><linearGradient id="linear-gradient-61" x1="453.43" y1="1071.85" x2="488.06" y2="1178.17" xlink:href="#linear-gradient"/><linearGradient id="linear-gradient-62" x1="456.44" y1="1082.25" x2="465" y2="1131.14" gradientTransform="matrix(1, 0, 0, 1, 0, 0)" xlink:href="#linear-gradient-9"/><linearGradient id="linear-gradient-63" x1="495.62" y1="1141.55" x2="474.38" y2="1062.37" xlink:href="#linear-gradient-10"/><linearGradient id="linear-gradient-64" x1="505.34" y1="1073.7" x2="513.9" y2="1122.61" gradientTransform="matrix(1, 0, 0, 1, 0, 0)" xlink:href="#linear-gradient-9"/><linearGradient id="linear-gradient-65" x1="639.47" y1="1102.96" x2="618.22" y2="1023.78" xlink:href="#linear-gradient-10"/><linearGradient id="linear-gradient-66" x1="605.51" y1="1056.16" x2="614.07" y2="1105.05" gradientTransform="matrix(1, 0, 0, 1, 0, 0)" xlink:href="#linear-gradient-9"/><linearGradient id="linear-gradient-67" x1="592.24" y1="1115.63" x2="571" y2="1036.45" xlink:href="#linear-gradient-10"/><linearGradient id="linear-gradient-68" x1="468.07" y1="550.96" x2="467.65" y2="560.57" xlink:href="#linear-gradient-2"/></defs><title>Customer menentukan lokasi</title><g class="cls-1"><g id="Layer_2" data-name="Layer 2"><polygon class="cls-2" points="1727.62 1026.07 1727.23 1025.08 1666.39 925.1 1347.61 846.16 1298.08 833.89 823.59 929.42 822.88 929.21 530.75 841.02 375.54 1315.64 841.57 1439.78 1346.22 1283.35 1892.18 1441.28 1727.62 1026.07"/><path class="cls-3" d="M907.94,316.16c2.67,7-14.07,10.87-15.48,3.74C890.87,311.86,904.92,308.28,907.94,316.16Z"/><path class="cls-4" d="M898.67,324.7a10.86,10.86,0,0,1-2.9-.37,5.53,5.53,0,0,1-4.29-4.23c-.91-4.62,2.52-7.79,6.34-8.89,4.16-1.2,9.3,0,11.06,4.6h0a5,5,0,0,1-1.12,5.39C905.79,323.35,902.07,324.7,898.67,324.7ZM901,312.75a9.43,9.43,0,0,0-2.59.37c-2.93.84-5.6,3.21-4.93,6.58a3.55,3.55,0,0,0,2.87,2.7c3.19.89,7.94-.33,10-2.55a3,3,0,0,0,.73-3.33C906,313.82,903.48,312.75,901,312.75Z"/><path class="cls-5" d="M1533.48,260.11c364.26,19.53,419.54,361.43,285.91,581-109.13,179.33-434,276.89-670.47,273.35S515.1,1040,416.25,841.14s65.13-422.7,300-391.85C1271.73,522.26,1249.6,244.89,1533.48,260.11Z"/><path class="cls-6" d="M539.72,528c-5.37,2.31-10.74,4.79-16,7.37a1.5,1.5,0,1,0,1.33,2.69c5.17-2.56,10.49-5,15.81-7.31a1.5,1.5,0,1,0-1.19-2.75Z"/><path class="cls-6" d="M946.84,583.39c-11.22-6-21.51-11.37-31.46-16.38a1.5,1.5,0,0,0-1.35,2.68c9.93,5,20.2,10.35,31.39,16.35a1.5,1.5,0,0,0,1.42-2.64Z"/><path class="cls-6" d="M678.28,499.84h-.36c-11.76,0-23.59.58-35.18,1.72a1.5,1.5,0,0,0,.15,3H643c11.48-1.13,23.22-1.7,34.88-1.7h.36a1.5,1.5,0,0,0,0-3Z"/><path class="cls-6" d="M607.56,506.84a347.45,347.45,0,0,0-34.47,8.84,1.5,1.5,0,1,0,.89,2.86,344.74,344.74,0,0,1,34.17-8.76,1.5,1.5,0,1,0-.59-2.94Z"/><path class="cls-6" d="M749,506.62c-11.73-2.21-23.57-3.91-35.21-5a1.5,1.5,0,1,0-.29,3c11.55,1.12,23.3,2.79,34.94,5l.28,0a1.5,1.5,0,0,0,.28-3Z"/><path class="cls-6" d="M817.62,525c-11.42-3.9-22.85-7.4-34-10.4a1.5,1.5,0,1,0-.78,2.9c11.05,3,22.42,6.46,33.77,10.34a1.5,1.5,0,1,0,1-2.84Z"/><path class="cls-6" d="M883.43,551.58c-11.1-5.11-22.06-9.87-32.56-14.13a1.5,1.5,0,0,0-1.13,2.78c10.46,4.25,21.37,9,32.43,14.07a1.5,1.5,0,1,0,1.25-2.73Z"/><path class="cls-6" d="M1674.78,725.93A177,177,0,0,1,1645.32,745a1.5,1.5,0,1,0,1.38,2.66,180,180,0,0,0,30-19.38,1.5,1.5,0,0,0-1.88-2.34Z"/><path class="cls-6" d="M1720,670.61a1.5,1.5,0,0,0-2,.64c-3.33,6.45-7,12.88-11,19.1-2.35,3.66-4.89,7.25-7.55,10.68a1.5,1.5,0,0,0,2.37,1.84c2.72-3.49,5.31-7.16,7.71-10.9,4-6.3,7.81-12.81,11.18-19.35A1.5,1.5,0,0,0,1720,670.61Z"/><path class="cls-6" d="M1741.58,603.42a1.5,1.5,0,0,0-1.71,1.25,214.85,214.85,0,0,1-8.26,34.17,1.5,1.5,0,1,0,2.85.94,218.15,218.15,0,0,0,8.37-34.65A1.5,1.5,0,0,0,1741.58,603.42Z"/><path class="cls-6" d="M1612.87,758.54a289.51,289.51,0,0,1-34.08,8.95,1.5,1.5,0,1,0,.59,2.94,292.67,292.67,0,0,0,34.44-9,1.5,1.5,0,0,0-.95-2.85Z"/><path class="cls-6" d="M1543.89,772.7c-11.27,1.15-23.13,1.89-35.25,2.19a1.5,1.5,0,0,0,0,3h0c12.2-.3,24.14-1,35.48-2.21a1.5,1.5,0,1,0-.3-3Z"/><path class="cls-6" d="M1473.3,774.61c-11.44-.45-23.31-1.25-35.28-2.37a1.5,1.5,0,0,0-.28,3c12,1.13,23.95,1.93,35.44,2.38h.06a1.5,1.5,0,0,0,.06-3Z"/><path class="cls-6" d="M1744.28,551.74a1.5,1.5,0,0,0-3,.32c.6,5.63,1,11.46,1,17.32a1.5,1.5,0,0,0,1.5,1.48h0a1.5,1.5,0,0,0,1.48-1.52C1745.25,563.38,1744.89,557.46,1744.28,551.74Z"/><path class="cls-7" d="M467.87,623a67.43,67.43,0,1,1,67.43-67.43A67.5,67.5,0,0,1,467.87,623Z"/><polygon class="cls-8" points="1871.17 1405.63 1346.26 1253.79 1346.09 1253.74 841.31 1410.21 391.53 1290.4 538.84 839.96 822.98 925.73 1297.8 830.14 1347.61 842.48 1658.39 919.43 1716 1014.11 1871.17 1405.63"/><path class="cls-9" d="M666.33,1026.74c2,0,175.64-13.69,178.25-12s48.79,124.21,48.79,124.21-107.53,51.38-110,52.23-149-44.78-149.7-46.36S666.33,1026.74,666.33,1026.74Z"/><path class="cls-9" d="M763.5,1389.49l104.15-174.85s187.92,59.11,187.26,61.77-35.86,79.7-35.86,79.7l-177.73,54.11Z"/><path class="cls-9" d="M1323.22,1175.4l4,81.74s21.25-2,23.25-2S1565,1315.59,1565,1315.59s-131.5-106.93-150.76-118.88S1323.22,1175.4,1323.22,1175.4Z"/><path class="cls-9" d="M1363.07,915.11l192,29.21s7.26,125.54,34.49,158.75l-78.35,9.54L1342.48,949.34Z"/><path class="cls-10" d="M1727.62,1009.51l-.39-1-60.84-100L1347.61,829.6l-49.53-12.27L823.59,912.86l-.71-.21L530.75,824.46,375.54,1299.08l466,124.14,504.65-156.43,546,157.93Zm7.41,86.56,60.46,152.54c-62.61-33.26-112.72-66.49-149.22-99q-23.61-21-39.32-41.35c45.44-6.37,91.57-9.61,116.1-11.34Q1730.28,1096.42,1735,1096.07Zm-908.94-63.68,6.52-.31,35,87.5L829,1142.74l-46.39,27.82-9.14,2.26-119.69-38c4.78-19.58,15.47-62.06,23.92-95.4ZM1002.84,1091l104.62,69c-12.45,20.63-28.59,47.42-44.59,74.15q-8.17,13.65-15.38,25.75L834.22,1192.1ZM546.92,855.46l244.52,73.81,31.33,78.25L671,1014.69,522.75,929.38Zm-32.11,98.19,138.64,79.81c-7.83,30.92-18.25,72.2-23.5,93.76l-155.73-49.46Zm-48.36,147.87,260.62,82.78-313,77.35Zm-4.6,194.68L800,1212.62l5.63-3.37,25.4,8.07,16.78,5.33-15.91,27.1-73.64,125.4Zm555,15.5c-6.6,11.33-11.68,20.22-15.11,26.44a122.94,122.94,0,0,0-5.66,11l-155,48.07-5.25-1.4-52.47-14L833.16,1297l39.09-66.56,162.14,51.5C1027.68,1293.24,1021.83,1303.2,1016.87,1311.7Zm286.93-57.94-259.55,80.46c26.53-45.68,79.65-134,115.76-193.52l-29.92-18.16-9.69,16-93.78-61.83,50.11-30-23.15-38.59-155.53,93.29-66-164.71L1297.52,843l49.93,12.36,302.93,75,54.39,89.38,16.74,42.24-.91.07c-27.72,2-82.32,5.79-133.85,13.87q-10.59-22.48-10.62-43.76h-25q0,23.76,10.27,48.17c-10.79,2.07-21.2,4.37-30.92,6.91a175.44,175.44,0,0,0-22.75,7.63c-32.09-29.92-116.06-110.68-161.22-166.63-5.66-7-10.71-13.64-15-19.72l-20.48,14.34c9,12.83,21.12,27.75,35,43.57,44.35,50.7,106.19,110.62,137.88,140.41-39.17,23.36-63.36,57-74.27,74.89-18.66-9.22-42.22-15.44-66.12-19.64-54.79-9.62-111.37-8.59-115-8.51l.53,25a708,708,0,0,1,74.71,3.34Zm42.17-13.07-3.46,1.07-3.71,1.15v-56.35c1.47.25,2.94.51,4.4.78,24.6,4.52,48,11.34,64,21.62,29.83,19.12,72.17,53.08,104,79.52Zm93.28-40.22c11.72-19.2,44.7-64.94,100.07-79.4,12.29-3.21,25.84-6,39.93-8.47q18.9,27.61,50.39,55.69c42.91,38.21,103.42,77.13,179.89,115.73l40.62,102.52-280.38-81.11C1556.83,1294.16,1489.94,1236.32,1439.25,1200.47Z"/><path class="cls-11" d="M1648.27,996.31l9.63-44c-10.1-2.21-25.89-6.35-45.87-11.59-64.06-16.78-171.28-44.88-254.68-51L1354,934.6c79.3,5.87,184,33.31,246.6,49.7C1621.11,989.67,1637.28,993.91,1648.27,996.31Z"/><rect class="cls-12" x="446.42" y="1042.73" width="197.7" height="148.4"/><rect class="cls-13" x="545.27" y="1098.4" width="42.97" height="92.73"/><rect class="cls-14" x="502.31" y="1098.4" width="42.96" height="92.73"/><path class="cls-15" d="M555.09,1064.33H568a9.82,9.82,0,0,1,9.82,9.82v40.43a0,0,0,0,1,0,0h-32.5a0,0,0,0,1,0,0v-40.43A9.82,9.82,0,0,1,555.09,1064.33Z" transform="translate(1123.05 2178.92) rotate(-180)"/><path class="cls-16" d="M512.77,1064.33h32.5a0,0,0,0,1,0,0v40.43a9.82,9.82,0,0,1-9.82,9.82H522.59a9.82,9.82,0,0,1-9.82-9.82v-40.43A0,0,0,0,1,512.77,1064.33Z"/><rect class="cls-17" x="457.58" y="1112.18" width="35.38" height="48.32"/><rect class="cls-18" x="597.59" y="1112.18" width="35.38" height="48.32"/><polygon class="cls-19" points="626.49 1112.18 597.59 1140.91 597.59 1151.84 632.97 1114.81 632.97 1112.18 626.49 1112.18"/><polygon class="cls-20" points="615.72 1160.5 632.97 1137.69 632.97 1125.2 599.92 1160.5 615.72 1160.5"/><rect class="cls-21" x="1545.59" y="969.44" width="195.63" height="74.66"/><rect class="cls-22" x="1667.77" y="949.34" width="46.81" height="94.76"/><rect class="cls-23" x="1573.93" y="956.15" width="60.29" height="57.02"/><polygon class="cls-24" points="1625.29 956.15 1596.78 1013.17 1582.92 1013.17 1614.72 956.15 1625.29 956.15"/><polygon class="cls-25" points="1634.22 956.15 1634.22 965.77 1616.12 1013.17 1608.15 1013.17 1633.57 956.15 1634.22 956.15"/><rect class="cls-26" x="1610.9" y="919.19" width="32.5" height="50.25"/><rect class="cls-27" x="1643.4" y="919.19" width="32.5" height="50.25" transform="translate(3319.31 1888.63) rotate(-180)"/><g class="cls-28"><polygon class="cls-29" points="1347.61 829.6 1347.61 842.48 1347.45 855.31 1346.51 928.21 1346.03 966.4 1343.52 1162.06 1343.2 1187.34 1342.51 1241.76 1342.17 1268.05 841.57 1423.22 836.5 1421.87 835.8 1395.81 833.16 1296.97 831.9 1249.75 831.03 1217.32 829.04 1142.74 826.09 1032.39 822.88 912.65 823.59 912.86 1298.08 817.33 1347.61 829.6"/></g><path class="cls-30" d="M1183.72,405.28q-11.79-1.12-23.39-1.13c-148.14,0-331.52,138.76-235.46,441.22,44.48,140.06,139.47,263.61,235.46,356.1h46.78v-47.79c78.92-85.54,151.47-191.14,188.68-308.31C1486.85,558.66,1326.81,419.05,1183.72,405.28Zm148.89,463.44c-28.64,26.71-64.27,44.44-103.41,49.33a177.81,177.81,0,0,1-66.5-4.25,185.85,185.85,0,0,1-70.1-35.55c-49-39.43-80.86-103.51-80.86-175.86,0-119.86,87.47-217,195.36-217s195.37,97.17,195.37,217C1402.47,769.18,1375.32,828.91,1332.61,868.72Z"/><path class="cls-31" d="M1207.1,404.15c-148.14,0-331.51,138.76-235.45,441.22,44.48,140.06,139.47,263.61,235.45,356.1,96-92.49,191-216,235.46-356.1C1538.62,542.91,1355.25,404.15,1207.1,404.15Zm125.51,464.57c-28.64,26.71-64.27,44.44-103.41,49.33a177.81,177.81,0,0,1-66.5-4.25,185.85,185.85,0,0,1-70.1-35.55c-49-39.43-80.86-103.51-80.86-175.86,0-119.86,87.47-217,195.36-217s195.37,97.17,195.37,217C1402.47,769.18,1375.32,828.91,1332.61,868.72Z"/><path class="cls-32" d="M1114.68,438.53c-5.61,0-9.72-2.08-12.19-4.92a12.41,12.41,0,0,1-.53-15.77c7.34-9.7,4.42-16.75-.87-29.55a1,1,0,1,1,1.85-.76c5.39,13,8.65,20.91.62,31.52a10.43,10.43,0,0,0,.44,13.25c4.07,4.67,13.36,6.9,27.23-.87a1,1,0,0,1,1,1.75C1125.33,437,1119.46,438.53,1114.68,438.53Z"/><path class="cls-33" d="M1138.1,324.44c-12.35,18.19-20,27.4-29.64,37.28s-13.88,21.65-10.11,30.09c4.42,9.9,18.29,9.48,12.8,21.39-3.83,8.3,3.68,33.73,49.18,20.83Z"/><path class="cls-34" d="M1052.34,339.68s51.47.74,55.9.91c11.24.43,12.28,24.89-1.71,24.89-13.55,0-51.85.52-51.85.52Z"/><path class="cls-35" d="M1402.47,702.39c0,66.79-27.15,126.52-69.86,166.33-28.64,26.71-64.27,44.44-103.41,49.33a177.44,177.44,0,0,1-22.1,1.38,175.4,175.4,0,0,1-23.37-1.55,177.77,177.77,0,0,0,45.36-12.29c39.39-16.44,72.72-46.63,95.28-85.29,19.81-34,31.32-74.43,31.32-117.91,0-111.07-75.1-202.65-172-215.49a177.24,177.24,0,0,1,23.38-1.54C1315,485.36,1402.47,582.53,1402.47,702.39Z"/><path class="cls-36" d="M1332.61,868.72c-28.64,26.71-64.27,44.44-103.41,49.33a177.81,177.81,0,0,1-66.5-4.25,185.85,185.85,0,0,1-70.1-35.55c2.87-23.79,7.17-55.49,11.81-75.44,8.2-35.28,14.34-76.06,18.78-103L1223.94,680l50.32,14.47c2.41,15,16.85,46.47,34.29,78.24C1322.47,798,1330,848.58,1332.61,868.72Z"/><path class="cls-37" d="M1332.61,868.72c-28.64,26.71-64.27,44.44-103.41,49.33a177.44,177.44,0,0,1-22.1,1.38q-5.62,0-11.18-.35c1.11-28.15,1.37-53.16,1.14-75.09-.43-43.11-2.71-74.36-4-94.38v-2.46s-6.6-59.29-8.15-59.52l39-7.66,50.32,14.47c2.41,15,16.85,46.47,34.29,78.24C1322.47,798,1330,848.58,1332.61,868.72Z"/><path class="cls-38" d="M1284.38,724.09c-10.48,2.23-27.55,5.7-46.06,8.84a307,307,0,0,0-4.85-31.26l-6.84,1.45a309.75,309.75,0,0,1,4.76,31c-9.67,1.56-19.56,3-28.95,4a193.84,193.84,0,0,1-55.65-1.34,140.51,140.51,0,0,1-.57-29.23l-7-.69a145.53,145.53,0,0,0,.35,28.62c-7-1.37-14-3-21.43-4.83,1.87-11.35,3.54-21.87,5-30.87L1223.94,680l50.32,14.47C1275.37,701.35,1279,711.75,1284.38,724.09Z"/><path class="cls-39" d="M1052.35,560.33l-21.42,7.92-57.59,21.28c-28.74,10.62-58.35-13.45-53.82-43.76l21-140.5c-16.74-14.17-21.3-27.19-21-27.29s13.88-58.56,13.88-58.56l.51-3.89c-2-3.52,2-12.52,8.36-7.6,5.46,4.21,24.27,24,24.27,24,4.84-5.39,23.29,27.67,24.19,29.82s1.62,20.75,1.44,27.56-5.91,12-5.91,12c-.06,1.44-.29,5.5-.64,11.31-1.86,31-7.07,111.67-7.07,111.67l46.8-17.67,15.4-5.82C1066.47,511.63,1052.35,560.33,1052.35,560.33Z"/><path class="cls-40" d="M940.22,331.29l78.45.65s12.5,34.93,3.59,44.81L938,378.51Z"/><path class="cls-39" d="M992.16,389.31c-.18,6.81-5.91,12-5.91,12-.06,1.44-.29,5.5-.64,11.31-10.27,3.91-21.91,5.38-24.07-6.6-4-22.24,14.34-39,14.34-39-14.1-25.11-13-31-9.35-35.15,4.84-5.39,23.29,27.67,24.19,29.82S992.34,382.5,992.16,389.31Z"/><path class="cls-41" d="M940,321.79c7.38,0,16.8,18,16.52,33.57s-6.75,31.19-13.66,31.19c-4.16,0-105.5,2.71-108.21,2.28s-3.48-66.59.66-67.73S928.89,321.79,940,321.79Z"/><path class="cls-42" d="M1052.35,560.33l-32.29,11.94c16.48-24.75,20.41-53.45,9.78-67.34l10.9-4.12C1066.47,511.63,1052.35,560.33,1052.35,560.33Z"/><path class="cls-39" d="M1215.31,498.51c.51,1.27-74.29,56-74.29,56a400.91,400.91,0,0,1,10.65-86.47,59.64,59.64,0,0,0,1.62-14.37,136,136,0,0,0-.72-15.21c-37.68,1.93-35.39-44.2-29-77.17s15.24-56.78,26.88-72.52c18.76-25.35,102.44,30.18,101.93,54s-37.78,77.34-38.79,95.34S1214.8,497.24,1215.31,498.51Z"/><path class="cls-43" d="M1288.44,660.67c5.73,27.8-2.94,40.44-14,44.65-16,6.1-118,21.11-153.59,8-12.92-4.77-8.47-29.73-11.57-43.54-7.83-34.81-34.89-68.12-34.89-68.12s-1.39-5.88-3.9-14.87c-6.41-23-20.11-66.33-36.49-83.73,0,0,48.44-22.43,65.54-29.18s25.81-5.14,52.12-6.09c0,0-6.08,53-6.36,70.71l7.43-2.25c18.73-25,56.22-65.37,60.88-68.18,0,0,40.85-1.59,52.67,2.63s31.51,25.32,31.51,49.23-8.44,68.37-12.66,88.06S1283.39,636.19,1288.44,660.67Z"/><path class="cls-44" d="M1151.67,468.08c-30.28,32.73-52.2,68.49-52.56,105.82l-28.61,13.18c-6.41-23-20.11-66.33-36.49-83.73,0,0,48.44-22.43,65.54-29.18S1125.36,469,1151.67,468.08Z"/><path class="cls-39" d="M1206.07,577.67l-16.36,6.48-87.24,34.57a39.59,39.59,0,0,1-54.09-34.18l-11.52-173c-22.21-11.41-18.14-31.75-20.38-43.47-.66-3.41-8.55-18.88-14.67-25.1s-19.25-9.17-19.66-14.36,4.79-6.73,4.79-6.73c2.75-8.25,20.48-5,20.48-5,6.42-2.65,14.84-1.32,14.84-1.32-7.18-3.59-5.11-13.08,1.86-11.18s28,14.31,33.05,26.36c8.35,19.92,21.21,70.94,28.81,109.23S1104.45,548,1104.45,548l70.62-30.09,16.54-7C1248.42,544.91,1206.07,577.67,1206.07,577.67Z"/><path class="cls-42" d="M1206.07,577.67l-16.36,6.48c10.83-38.65-4.93-58.28-14.64-66.22l16.54-7C1248.42,544.91,1206.07,577.67,1206.07,577.67Z"/><path class="cls-4" d="M1016.48,369a1,1,0,0,1-1-.81c-.61-3.18-8.48-18.57-14.39-24.59-2.57-2.61-6.43-4.62-10.17-6.57-5.1-2.65-9.5-4.95-9.78-8.42a7.5,7.5,0,0,1,5-7.6c3.26-7.89,18.73-5.64,21.14-5.23,6.56-2.58,14.75-1.33,15.1-1.28a1,1,0,0,1-.31,2c-.08,0-8.23-1.25-14.3,1.26a1,1,0,0,1-.56.06c-.17,0-16.9-3-19.35,4.33a1,1,0,0,1-.67.64c-.18.05-4.41,1.38-4.07,5.69.19,2.37,4.32,4.52,8.7,6.8,3.7,1.92,7.88,4.1,10.67,6.94,6.4,6.5,14.26,22.08,14.93,25.61a1,1,0,0,1-.79,1.17Z"/><path class="cls-42" d="M1196.18,417.24c-.18.5-6.26,16.63-15.08,24.17-4.46,3.82-17.12,10.5-27.81,12.3a136,136,0,0,0-.72-15.21C1164.82,438.39,1186.34,430.78,1196.18,417.24Z"/><path class="cls-45" d="M1121.39,300.29c13.5,12.4,26.45,9.23,26.45,9.23s6.06-6.89,13.64-10.47c0,0-6.61,8.27-9.09,11.85a28.21,28.21,0,0,0,10.88,0s7.71-9.09,10.47-11.3c0,0-2.62,7.85-3,11.85,0,0,14.77,3.84,28.63,1.52,0,0,0-8.27,4-13.92,0,0,.88,12.39,0,17.55,0,0,12.68,4.35,16.63,9.82,0,0-7.75,3.23-12.78,18.38-2.35,7.09-.76,20.46,1.57,22.46,1.19-2.78,15.53-9.4,21.13-.21,4.35,7.14-4.22,27.44-21.53,26.7,0,0-8.36,29.62,5.67,45.89,5.67,6.57,37.09,9.26,46,1.68,0,0-10.65-4.93-13.37-24.08,0,0,4.62,13.45,23.1,22.69,0,0,10.84-2.38,27.45-11.72,10.36-5.83,31.33-.89,31.33-.89a37.55,37.55,0,0,0-14-9.48c-11.72-4.56-17-16.11-17-16.11s8.42,12.71,20,14.52,24.34,11.39,29,20.84c0,0,4.85-12.35-3.63-19.86-10.81-9.58-23-8.37-23-22.62,0-12.93-4.42-16.32-20.09-18.79s-30.69-6.05-30.33-30.1c.35-22.78-7.94-49.34-39.93-49.13,0,0-14.4-18.35-32.42-22.23C1176.49,269.91,1145.6,270.95,1121.39,300.29Z"/><ellipse class="cls-46" cx="1135.51" cy="350.64" rx="5.02" ry="3.37" transform="translate(508.25 1360.03) rotate(-75.3)"/><path class="cls-32" d="M1204.59,442.08a1,1,0,0,1-.94-.65c-6-15.93-.18-39,5-46.21a1,1,0,1,1,1.63,1.16c-4.81,6.75-10.39,29.27-4.73,44.34a1,1,0,0,1-.94,1.35Z"/><path class="cls-46" d="M1166.08,356.4a1.5,1.5,0,0,1-.76-2.8c3.86-2.25,9.85-2.89,14.57-1.56a1.5,1.5,0,0,1-.81,2.89,17.35,17.35,0,0,0-12.25,1.27A1.5,1.5,0,0,1,1166.08,356.4Z"/><path class="cls-32" d="M1200.26,339.7a1.49,1.49,0,0,1-1-.4c-8.38-7.8-23.94-12.16-31.45-6.1a1.5,1.5,0,1,1-1.88-2.33c8.8-7.1,25.93-2.56,35.38,6.24a1.5,1.5,0,0,1-1,2.6Z"/><path class="cls-32" d="M1148.93,332.83a1.49,1.49,0,0,1-.88-.29c-3.69-2.68-10.92-4-16.18-1.43a1.5,1.5,0,1,1-1.31-2.7c6.34-3.08,14.77-1.55,19.25,1.7a1.5,1.5,0,0,1-.88,2.71Z"/><path class="cls-4" d="M1204.9,377.54a1,1,0,0,1,0-2c7.73-.15,18.55-4.59,18.65-4.64a1,1,0,0,1,.77,1.85c-.46.19-11.27,4.63-19.38,4.79Z"/><path class="cls-4" d="M1208.36,385.4a1,1,0,0,1,0-2c3.54-.11,8.1-1.42,9.73-4.06.89-1.43.85-3.2-.09-5.26a1,1,0,0,1,1.82-.84c1.25,2.71,1.24,5.11,0,7.15-2.32,3.75-8.24,4.91-11.37,5Z"/><path class="cls-4" d="M1141.33,386.33a1,1,0,0,1-.35-.06,14.72,14.72,0,0,1-8.85-9.26c-1.2-3.56-1.11-7.39.22-9.52,1.18-1.89,3.07-2.81,5.26-3.86,4.61-2.23,10.93-5.28,15-20.51a1,1,0,0,1,1.93.52c-4.32,16.12-11.11,19.4-16.07,21.8-2,1-3.56,1.72-4.44,3.12s-1.14,4.5,0,7.82a12.81,12.81,0,0,0,7.66,8,1,1,0,0,1-.35,1.94Z"/><path class="cls-4" d="M1164.52,391.69c-7.1,8.18-11.72,10.46-19,10.41-7.78-.06-9.95-1.69-9.93-4.22,0-3.42,5.2-5,11.74-4.53C1154.61,393.9,1159.27,395.09,1164.52,391.69Z"/><path class="cls-47" d="M1179.76,513c36-16.84,64.27-28.55,69.06-30.21,17.07-5.93,58.17,48.52,8.74,74.2,0,0-36.64,14.51-51.49,20.68C1212.54,559.88,1204.42,527.8,1179.76,513Z"/><path class="cls-48" d="M1179.76,514a1,1,0,0,1-.42-1.91c12.82-6,25.65-11.8,38.13-17.27a1,1,0,1,1,.8,1.83c-12.46,5.46-25.28,11.27-38.08,17.25A1,1,0,0,1,1179.76,514Z"/><path class="cls-48" d="M1206.07,578.67a1,1,0,0,1-.38-1.92c5.9-2.45,15.91-6.5,29.73-12a1,1,0,0,1,.74,1.86c-13.82,5.52-23.81,9.56-29.71,12A1,1,0,0,1,1206.07,578.67Z"/><path class="cls-4" d="M1052.86,344.37a1,1,0,0,1-.8-.4c-10.35-13.86-19.76-25.49-30-27.46a1,1,0,1,1,.38-2c10.94,2.1,20.61,14,31.22,28.22a1,1,0,0,1-.8,1.6Z"/><path class="cls-4" d="M1041.3,348a1,1,0,0,1-.85-.48c-4.32-7-15.81-25.77-33.24-29.71a1,1,0,1,1,.44-2c18.26,4.13,30.07,23.37,34.51,30.62a1,1,0,0,1-.85,1.52Z"/><path class="cls-4" d="M1026,351.38a1,1,0,0,1-.89-.53c-10.62-20.14-30.14-28.81-38.1-28a1,1,0,0,1-.2-2c8.44-.85,29,8.13,40.07,29.07a1,1,0,0,1-.88,1.47Z"/><path class="cls-4" d="M961,399.78h0a1,1,0,0,1-1-1c.4-16.83,11.88-29.13,14.65-31.86-13.1-23.46-13.22-30.64-8.85-35.62a2.73,2.73,0,0,1,2.61-.89c7.21,1.22,22.63,29.48,23.25,31a1,1,0,0,1-1.84.77c-1.32-3.15-16.2-28.84-21.74-29.78a.74.74,0,0,0-.78.24c-3.08,3.52-4.69,8.77,9.48,34a1,1,0,0,1-.2,1.23c-.14.13-14.16,13.12-14.58,31A1,1,0,0,1,961,399.78Z"/><path class="cls-3" d="M922.15,316.6c3.7,7.59-14.31,13.64-16.64,5.76C902.89,313.48,918,308,922.15,316.6Z"/><path class="cls-4" d="M911.64,327a10.84,10.84,0,0,1-1.95-.17,6.12,6.12,0,0,1-5.14-4.24c-1.49-5.06,2-8.92,6-10.5,4.25-1.65,10-1.1,12.46,4h0a5.64,5.64,0,0,1-.71,6.12C920.2,325.1,915.64,327,911.64,327Zm3.29-13.74a10.09,10.09,0,0,0-3.61.69c-3.23,1.25-6,4.24-4.84,8.07a4.12,4.12,0,0,0,3.58,2.84c3.63.66,8.63-1.13,10.69-3.84a3.64,3.64,0,0,0,.51-4A6.68,6.68,0,0,0,914.93,313.31Z"/><path class="cls-49" d="M506.66,516.75a1.5,1.5,0,0,0-1.7-.3l-51.41,24a1.48,1.48,0,0,0-.72.72l-24,51.4a1.5,1.5,0,0,0,.3,1.7,1.47,1.47,0,0,0,1.06.44,1.56,1.56,0,0,0,.63-.14l51.41-24a1.52,1.52,0,0,0,.73-.73l24-51.4A1.51,1.51,0,0,0,506.66,516.75Z"/><path class="cls-50" d="M507,518.44l-24,51.4-29.37-29.35,51.41-24a1.5,1.5,0,0,1,2,2Z"/><path class="cls-51" d="M1696.13,534.56a1.5,1.5,0,0,0-.69-.92l-14.21-8.47a1.5,1.5,0,0,0-2.06.52L1669,542.84a1.5,1.5,0,0,0,.52,2.06l14.21,8.47a1.5,1.5,0,0,0,2.06-.52L1696,535.69A1.5,1.5,0,0,0,1696.13,534.56Z"/><path class="cls-52" d="M1679.81,543.53a14,14,0,0,0-19.2,4.86l-62.54,105a1.5,1.5,0,0,0,.52,2.06l21.49,12.8a1.5,1.5,0,0,0,2.06-.52l62.54-105A14,14,0,0,0,1679.81,543.53Z"/><path class="cls-53" d="M1724.15,546.7A77.61,77.61,0,1,1,1764,402.41h0a77.6,77.6,0,0,1-20.66,141.88A78.07,78.07,0,0,1,1724.15,546.7Z"/><path class="cls-54" d="M1724.18,529.64a60.57,60.57,0,1,1,52.14-29.56h0A60.61,60.61,0,0,1,1724.18,529.64ZM1775,499.31h0Z"/><path class="cls-55" d="M1759.5,433.08A50.38,50.38,0,0,1,1681,494.82a50.38,50.38,0,0,0,43.23,24.6,50.73,50.73,0,0,0,24.59-6.36,50.34,50.34,0,0,0,10.72-80Z"/><path class="cls-4" d="M1143.61,399.78a51.64,51.64,0,0,1-5.75-.33,1,1,0,0,1,.22-2c13.25,1.48,23.93-2.28,28.56-10.07a1,1,0,1,1,1.72,1C1164,395.71,1155,399.78,1143.61,399.78Z"/><path class="cls-3" d="M937.48,319.35c2.13,8.2-17.77,10.33-18.42,2.13C918.32,312.25,935.07,310.11,937.48,319.35Z"/><path class="cls-4" d="M927.44,327.66a13.87,13.87,0,0,1-5.15-.91c-2.54-1-4-2.88-4.23-5.19-.41-5.16,3.87-8.23,8.29-9,5-.84,10.7,1.13,12.1,6.51h0a5.46,5.46,0,0,1-1.87,5.68C934.47,326.62,930.89,327.66,927.44,327.66Zm1.2-13.26a11.76,11.76,0,0,0-2,.16c-3.52.6-6.94,2.94-6.63,6.84.13,1.56,1.13,2.74,3,3.49,3.71,1.5,9.53.73,12.22-1.63a3.46,3.46,0,0,0,1.25-3.67h0C935.55,315.9,932.05,314.4,928.63,314.4Z"/><ellipse class="cls-56" cx="835.56" cy="354.96" rx="21.14" ry="33.92"/><ellipse class="cls-57" cx="835.56" cy="354.96" rx="14.61" ry="23.33"/><path class="cls-58" d="M842,361.77a2.61,2.61,0,0,0-2.11,1.12,4.91,4.91,0,0,1-8.65,0,2.61,2.61,0,0,0-2.12-1.13h0a2.56,2.56,0,0,0-2.34,3.62c2,4.27,5.18,7,8.78,7s6.79-2.76,8.78-7a2.56,2.56,0,0,0-2.34-3.62Z"/><path class="cls-59" d="M835.56,344.42a5.23,5.23,0,0,1,4,2.16,2.63,2.63,0,0,0,2,1h.15a2.55,2.55,0,0,0,2.31-3.67c-2-3.92-5.05-6.43-8.48-6.43s-6.47,2.51-8.48,6.43a2.55,2.55,0,0,0,2.31,3.67h.15a2.63,2.63,0,0,0,2-1A5.23,5.23,0,0,1,835.56,344.42Z"/><ellipse class="cls-60" cx="832.88" cy="351.02" rx="4.13" ry="6.59"/><path class="cls-61" d="M1195.92,919.08a177,177,0,0,1-33.22-5.28c8.65-33.4,20.7-61,34.36-69.81C1197.29,865.92,1197,890.93,1195.92,919.08Z"/><path class="cls-32" d="M1292.27,863.45h0a1,1,0,0,1-1-1c.88-64.25-3.15-74.26-16.5-107.43-2.44-6.05-5.2-12.91-8.29-21a1,1,0,0,1,1.87-.71c3.08,8.07,5.84,14.92,8.28,21,13.47,33.45,17.53,43.55,16.65,108.2A1,1,0,0,1,1292.27,863.45Z"/><path class="cls-32" d="M1195.92,920.08h0a1,1,0,0,1-1-1c1-25.61,1.39-50.86,1.14-75-.38-38.5-2.28-68-3.53-87.57q-.23-3.57-.43-6.76a1,1,0,0,1,.94-1.06,1,1,0,0,1,1.06.94q.2,3.19.43,6.76c1.25,19.56,3.15,49.12,3.53,87.67.25,24.22-.13,49.5-1.14,75.14A1,1,0,0,1,1195.92,920.08Z"/><path class="cls-32" d="M1196.66,823l-.2,0c-18.25-3.75-22-41.13-23.26-73.28a1,1,0,0,1,1-1,1,1,0,0,1,1,1c.71,18.46,2.61,67.48,21.66,71.4a1,1,0,0,1-.2,2Z"/><circle class="cls-62" cx="1179.64" cy="727.7" r="5.27"/><rect class="cls-63" x="1533.48" y="1044.1" width="219.84" height="14.66"/><polygon class="cls-64" points="1714.58 949.34 1714.58 950.89 1667.77 1018.18 1667.77 1007.58 1706.14 949.34 1714.58 949.34"/><path class="cls-64" d="M1714.58,964.84V981.7l-37.53,62.4h-9.28v-21.42C1681.28,1005.87,1702.07,980.24,1714.58,964.84Z"/><polygon class="cls-65" points="1557.72 919.19 1525.82 952.94 1525.82 969.44 1552.53 969.44 1552.53 954.67 1584.27 919.19 1557.72 919.19"/><polygon class="cls-66" points="1584.27 919.19 1552.53 954.67 1552.53 969.44 1583.76 969.44 1583.76 954.67 1604.73 919.19 1584.27 919.19"/><polygon class="cls-67" points="1604.73 919.19 1583.76 954.67 1583.76 969.44 1614.55 969.44 1614.66 954.67 1627.13 919.19 1604.73 919.19"/><polygon class="cls-68" points="1729.09 919.19 1760.99 952.94 1760.99 969.44 1734.28 969.44 1734.28 954.67 1702.54 919.19 1729.09 919.19"/><polygon class="cls-69" points="1702.54 919.19 1734.28 954.67 1734.28 969.44 1703.05 969.44 1703.05 954.67 1682.08 919.19 1702.54 919.19"/><polygon class="cls-70" points="1682.08 919.19 1703.05 954.67 1703.05 969.44 1672.26 969.44 1672.15 954.67 1659.68 919.19 1682.08 919.19"/><rect class="cls-71" x="437.9" y="1191.13" width="214.75" height="15.84"/><path class="cls-72" d="M478.51,1112.18c-6.7,5.72-14.11,12-20.93,17.84v13.52l28.9-31.36Z"/><path class="cls-73" d="M457.58,1152.47v8h7.85l27.53-33v-10.16C483.73,1126.47,469.34,1140.76,457.58,1152.47Z"/><path class="cls-74" d="M459.59,1064.33l-31.9,33.75v6.68a9.82,9.82,0,0,0,9.82,9.82h7.08a9.82,9.82,0,0,0,9.82-9.82v-5l31.74-35.48Z"/><path class="cls-75" d="M486.14,1064.33l-31.74,35.48v5a9.82,9.82,0,0,0,9.82,9.82h11.59a9.82,9.82,0,0,0,9.82-9.82v-5l21-35.48Z"/><path class="cls-76" d="M506.6,1064.33l-21,35.48v5a9.82,9.82,0,0,0,9.82,9.82h11.23a9.82,9.82,0,0,0,9.82-9.75l0-5L529,1064.33Z"/><path class="cls-77" d="M631,1064.33l31.9,33.75v6.68a9.82,9.82,0,0,1-9.82,9.82H646a9.82,9.82,0,0,1-9.82-9.82v-5l-31.74-35.48Z"/><path class="cls-78" d="M604.41,1064.33l31.74,35.48v5a9.82,9.82,0,0,1-9.82,9.82H614.74a9.82,9.82,0,0,1-9.82-9.82v-5l-21-35.48Z"/><path class="cls-79" d="M583.95,1064.33l21,35.48v5a9.82,9.82,0,0,1-9.82,9.82H583.88a9.82,9.82,0,0,1-9.82-9.75l0-5-12.47-35.48Z"/><path class="cls-4" d="M977.36,543.23h-.05a1,1,0,0,1-.95-1c0-.09.45-8.86,1.18-18a1,1,0,0,1,2,.16c-.74,9.07-1.18,17.81-1.18,17.9A1,1,0,0,1,977.36,543.23Z"/><path class="cls-80" d="M467.88,564.43a8.91,8.91,0,1,1,6.31-2.61h0A8.89,8.89,0,0,1,467.88,564.43Z"/></g></g></svg>