<?xml version="1.0" encoding="utf-8"?>
<!-- Generator: Adobe Illustrator 15.0.2, SVG Export Plug-In . SVG Version: 6.00 Build 0)  -->
<!DOCTYPE svg PUBLIC "-//W3C//DTD SVG 1.1//EN" "http://www.w3.org/Graphics/SVG/1.1/DTD/svg11.dtd">
<svg version="1.1" id="Layer_1" xmlns="http://www.w3.org/2000/svg" xmlns:xlink="http://www.w3.org/1999/xlink" x="0px" y="0px"
	 width="1159px" height="771px" viewBox="0 0 1159 771" enable-background="new 0 0 1159 771" xml:space="preserve">
<rect fill="#FFFFFF" width="1159" height="771"/>
<g>
	<g>
		<path fill="#4485F3" d="M861.4,494.5H701.1c-10.3,0-18.6,8.3-18.6,18.6s8.3,18.6,18.6,18.6h160.3c10.3,0,18.6-8.3,18.6-18.6
			S871.7,494.5,861.4,494.5z"/>
	</g>
	<g>
		<g>
			<path fill="#3E3D3C" d="M831.3,477.9c-8.4,0-15.2,6.8-15.2,15.2c0,8.4,6.8,15.2,15.2,15.2c8.4,0,15.2-6.8,15.2-15.2
				C846.6,484.7,839.7,477.9,831.3,477.9z M831.3,505.1c-6.6,0-12-5.4-12-12c0-6.6,5.4-12,12-12c6.6,0,12,5.4,12,12
				C843.4,499.7,838,505.1,831.3,505.1z"/>
		</g>
		<g>
			<g>
				
					<rect x="836.7" y="511.1" transform="matrix(-0.7233 -0.6905 0.6905 -0.7233 1111.526 1470.7275)" fill="#3E3D3C" width="27.5" height="3.2"/>
			</g>
		</g>
	</g>
	<g>
		<g>
			<rect x="188.9" y="651.6" fill="#3E3D3C" width="784" height="3.2"/>
		</g>
	</g>
	<g>
		<g>
			<path fill="#D2E4FC" d="M572.9,238.2c-13.8-7.7-29.9-3.1-43.7,5.1c-7.8,4.6-14.9,10.4-20.3,15.9c-6.6,6.5-12.3,13.9-16.9,21.9
				c-2.2,3.8-4.3,7.6-6.6,11.3c-2.4,3.7-4.4,8.3-2,12.5c2.4,4.3,8.2,5.1,13.2,5.2c14.6,0.3,29.4-0.3,43.6-3.9
				c14.2-3.7,27.8-10.7,37.6-21.5c5.2-5.7,9.3-12.8,9.9-20.5C588.3,253.6,582,243.3,572.9,238.2z"/>
		</g>
		<g>
			<path fill="#3E3D3C" d="M566.3,158.4c0,0.5,0.1,0.9,0.2,1.4C566.4,159.3,566.4,158.8,566.3,158.4z"/>
			<path fill="#3E3D3C" d="M575.2,150.8c-2.4-0.6-5,0.2-6.7,1.9c-1.4,1.4-2.3,3.7-2.2,5.7c0.1,0.5,0.1,0.9,0.2,1.4
				c-0.1-0.4-0.2-0.9-0.2-1.4c-1.4-9.8-5.9-19.2-12.7-26.5c-2.5-2.7-5.4-5.1-8.8-6.4c-3.4-1.3-7.5-1.3-10.6,0.7
				c-3.1,2-4.4,5.8-2.9,9.2c-7.6-7.9-19.1-11.9-29.9-10.3c-3.7,0.5-7.7,1.9-9.8,5.1c-2.6,3.8-1.6,9.2,1.1,12.9
				c2.7,3.7,5.8,6.5,9.7,8.9c-3.3-0.8-6.6-1.7-10-1.4s-6.8,1.8-8.5,4.8c-2.1,3.8-0.7,8.6,1.2,12.5c3.8,7.7,9.3,14.5,16.1,19.8
				c7.9-6.8,19.4-9,29.3-6c12,3.7,20.7,14.2,27.4,24.8c1.4,2.1,2.7,4.4,4.8,5.8c2.1,1.4,5.2,1.7,7-0.1c1.3-1.2,1.6-3.1,1.9-4.9
				c0.8-4.9,0.3-10.3,2.4-14.8c3.8-8.1,6.3-16.7,7.4-25.6c0.4-3.1,0.6-6.3-0.3-9.3S578.2,151.5,575.2,150.8z"/>
		</g>
		<g>
			<path fill="#D2E4FC" d="M518.6,283.4c-3.6-7.9-7.8-15.7-12.2-23.1c0,0,0,0,0-0.1c-14.4-24.2-31.5-44.1-41.8-49.5
				c-12.8-6.7-31.9-0.4-34.5,13.8c-1.2,6.6-0.8,13.2,0.5,19.8c1.1,5.3,2.8,10.6,4.8,15.7c0.8,2.1,1.8,4.3,2.7,6.4
				c1,2.3,2.1,4.7,3.3,7.2c0.5,1.2,1.1,2.3,1.6,3.5c12.5,26.4,84.4,28.3,81.4,20.3C522.7,292.7,520.7,288,518.6,283.4z"/>
		</g>
		<g>
			<g>
				<path fill="#3E3D3C" d="M515.4,301.5c-0.1,0-0.3-0.1-0.4-0.1l-1.1,3c0.5,0.2,0.8,0.3,0.8,0.3l0.4,0.2l0.4-0.1
					c0.5-0.1,51.7-10.1,98,3.7l0.9-3.1C569.7,292.1,520.6,300.6,515.4,301.5z"/>
			</g>
		</g>
		<g>
			<path fill="#FFFFFF" d="M874.6,567.2c0,0-32.2,9.1-44.3,11.7c-1.9,8.1,1.2,20.4,4.2,28c6.8-1,17.7-3.5,24.2,5.5
				c10.5,14.6,13.1,42.3,19,40.5c18.6-5.9,11.6-52.8,8.3-66.8C881.4,566.5,874.6,567.2,874.6,567.2z"/>
		</g>
		<g>
			<path fill="#3E3D3C" d="M874.5,565.6l-0.3,0.1c-0.3,0.1-32.3,9.1-44.2,11.7l-1,0.2l-0.2,1c-2,8.3,1.1,20.7,4.3,28.9l0.5,1.2
				l1.3-0.2c0.6-0.1,1.2-0.2,1.8-0.3c6.5-1,15.5-2.3,20.9,5.1c4.9,6.9,8.2,17.1,10.8,25.3c1.4,4.5,2.7,8.5,4,11.3
				c0.6,1.2,2.2,4.7,5,4.7c0.3,0,0.7-0.1,1.1-0.2c8.7-2.8,13.2-13.5,13.5-31.9c0.2-14.7-2.5-30.1-4.1-36.8
				C882.8,565.4,875.3,565.5,874.5,565.6z M888.5,622.5c-0.1,11.6-2.2,26-11.2,28.9c-0.3,0.1-1-0.4-2.2-2.8
				c-1.2-2.6-2.4-6.4-3.8-10.9c-2.7-8.4-6-18.8-11.2-26.2c-4.2-5.8-10-7.2-15.5-7.2c-3.1,0-6,0.4-8.5,0.8c-0.2,0-0.3,0.1-0.5,0.1
				c-2.9-7.9-5.1-18.1-3.9-24.9c12.1-2.7,40.2-10.6,43.2-11.4c0.8,0.1,5.8,1.5,9.6,17.6C886.1,593,888.7,608.1,888.5,622.5z"/>
		</g>
		<g>
			<path fill="#FFFFFF" d="M469.7,602c0,0,3.8,17.7-0.3,25c-4,7.3-20.9,9.1-38.1,11.4c-17.1,2.3-14.9,13.6-14.9,13.6H516l-11.1-50
				H469.7z"/>
		</g>
		<g>
			<path fill="#3E3D3C" d="M467.8,600.5l0.4,1.8c0,0.2,3.6,17.3-0.1,24c-3.4,6.2-19.1,8.3-34.2,10.2l-2.8,0.4
				c-6.8,0.9-11.6,3.2-14.2,6.9c-2.8,3.9-2,7.8-2,8l0.2,1.2h102.7l-11.7-52.5H467.8z M417.8,650c0-1.1,0.3-2.8,1.6-4.5
				c2.1-2.9,6.2-4.8,12.1-5.6l2.8-0.4c16.6-2.2,32.2-4.2,36.4-11.8c3.5-6.3,1.6-19.4,0.8-24.2h32.2l10.4,46.5H417.8z"/>
		</g>
		<g>
			<path fill="#FFFFFF" d="M463.4,431.3c-17.8-1.1-31.7,15-28.2,32.4L463,600.7h53.4L497,494.5l179.1-3.4l-5.7-90.9L463.4,431.3z"/>
		</g>
		<g>
			<path fill="#3E3D3C" d="M463.1,429.8c-12.5,2-21.3,6.6-26.1,13.6c-3.9,5.6-5,12.6-3.4,20.7l28.1,138.2h56.6L498.9,496l178.9-3.4
				l-5.9-94.3L463.1,429.8z M495.1,492.9l19.4,106.1h-50.2l-27.6-135.6c-1.5-7.2-0.5-13.4,2.9-18.3c4.3-6.2,12.4-10.4,24-12.3
				L668.9,402l5.5,87.5L495.1,492.9z"/>
		</g>
		<g>
			<path fill="#FFFFFF" d="M709,592.5c0,0,9.3-106.1,6.5-178.3L622,426.4l17.8,186.5c2.4,24.7,24.7,42.6,49.3,39.6l157.1-22.5
				l-12.8-54.6L709,592.5z"/>
		</g>
		<g>
			<path fill="#3E3D3C" d="M710.8,590.6c1.3-15,8.9-110.5,6.4-176.5l-0.1-1.8l-96.8,12.7l17.9,188c1.2,12.4,7.2,23.5,16.9,31.3
				c8.2,6.6,18.2,10.1,28.5,10.1c1.9,0,3.8-0.1,5.7-0.4l158.9-22.7l-13.6-57.7L710.8,590.6z M688.9,651c-11.5,1.4-22.8-1.8-31.8-9
				c-9-7.3-14.6-17.6-15.7-29.1l-17.6-185L714,416c2.6,71.2-6.5,175.3-6.6,176.3l-0.2,2l124.9-17.1l12.1,51.4L688.9,651z"/>
		</g>
		<g>
			<path fill="#3E3D3C" d="M574.8,414c0,0,26.8,29.7,32.7,39.6C622,478,622,492.1,622,492.1l6.2-0.1l-6.2-65.5L574.8,414z"/>
		</g>
		<g>
			<path fill="#3E3D3C" d="M506.3,260.2l-28.5,13.2l-47.3-29.1c1.1,5.3,2.8,10.6,4.8,15.7c0.8,2.1,1.8,4.3,2.7,6.4
				c1,2.3,2.1,4.7,3.3,7.2l41.5,35c0,0,23.8-13.1,25-18C509.7,283.1,510.8,267.6,506.3,260.2C506.3,260.2,506.3,260.2,506.3,260.2z"
				/>
		</g>
		<g>
			<path fill="#D2E4FC" d="M560.1,228.6C485.6,240.8,578.4,414,578.4,414s8.6,17.2,43.6,32.7c18.8,8.4,51.8,7.7,78.3,5.3
				c21.6-2,35.8-23.6,29-44.2C707.1,341.2,652,213.5,560.1,228.6z"/>
		</g>
		<g>
			<path fill="#FEA086" d="M584.9,229.1l-25.5-18.8l-17.1,4.7l3.8,11.4c1.1,3.2,0.3,6.8-2.1,9.1c-1.3,1.3-1.9,2.5-1.7,3.7
				c0.7,4.2,11.3,5.8,23.5,3.7c12.3-2.1,21.6-7.2,20.9-11.4C586.7,230.6,586,229.8,584.9,229.1z"/>
		</g>
		<g>
			<path fill="#3E3D3C" d="M584.9,229.1l-25.5-18.8l-17.1,4.7l3.8,11.4c1.1,3.2,0.3,6.8-2.1,9.1c-1.3,1.3-1.9,2.5-1.7,3.7
				c0.5,2.9,5.9,4.6,13.3,4.6c3.1,0,6.6-0.3,10.2-0.9c12.3-2.1,21.6-7.2,20.9-11.4C586.7,230.6,586,229.8,584.9,229.1z M565.4,239.8
				c-3.3,0.6-6.6,0.9-9.6,0.9c-6.2,0-9.4-1.3-10.1-2c0.1-0.2,0.3-0.5,0.7-0.9c3.2-3.1,4.3-8,2.9-12.4l-2.7-8.2l12.3-3.4l24.2,17.9
				l0.1,0.1l0.1,0.1c0.2,0.1,0.3,0.2,0.4,0.3C582.9,233.7,577,237.8,565.4,239.8z"/>
		</g>
		<g>
			<path fill="#3E3D3C" d="M542.3,215l3.8,11.4c1,2.8,0.5,6-1.4,8.3c10.9-0.4,20.8-6.5,26.7-15.5l-12.1-9L542.3,215z"/>
		</g>
		<g>
			<g>
				<rect x="459.1" y="580" fill="#3E3D3C" width="31.1" height="3.2"/>
			</g>
		</g>
		<g>
			
				<ellipse transform="matrix(0.1166 -0.9932 0.9932 0.1166 282.1508 701.1614)" fill="#FEA086" cx="535.2" cy="192" rx="41.1" ry="33.6"/>
		</g>
		<g>
			<path fill="#3E3D3C" d="M540.2,149.6c-19.3-2.3-37.2,14.9-40,38.3c-2.7,23.4,10.7,44.2,30,46.5c1.2,0.1,2.3,0.2,3.5,0.2
				c8.2,0,16.2-3.4,22.8-9.8c7.5-7.2,12.3-17.4,13.6-28.7C573,172.7,559.5,151.8,540.2,149.6z M568.6,195.9l-1.6-0.2
				c-1.2,10.5-5.7,20-12.7,26.7c-6.9,6.6-15.3,9.7-23.7,8.7c-17.5-2.1-29.7-21.3-27.2-43c2.4-20.4,17-35.7,33.4-35.7
				c1,0,2,0.1,3.1,0.2c17.5,2.1,29.7,21.3,27.2,43L568.6,195.9z"/>
		</g>
		<g>
			<g>
				
					<ellipse transform="matrix(-0.7434 -0.6689 0.6689 -0.7434 850.2677 720.005)" fill="#FEA086" cx="563.3" cy="196.9" rx="5.6" ry="8.4"/>
			</g>
			<g>
				<g>
					<path fill="#3E3D3C" d="M560.4,190.2l1.5,2.2c2.3-1.6,4.8-1.9,6-0.8c1,0.9,1,2.5,0.9,3.3c-0.2,1.6-1.1,3.3-2.4,4.8
						c-1.3,1.5-2.9,2.5-4.5,2.9c-0.8,0.2-2.3,0.4-3.4-0.5l-1.8,2c1,0.9,2.3,1.4,3.8,1.4c0.6,0,1.3-0.1,2-0.3
						c2.1-0.5,4.2-1.9,5.8-3.7c1.7-1.9,2.8-4.1,3.1-6.2c0.3-2.3-0.3-4.3-1.7-5.7C567.5,187.6,563.8,187.9,560.4,190.2z"/>
				</g>
			</g>
		</g>
		<g>
			<path fill="#3E3D3C" d="M551.5,150.5c-10.9-6.7-25.6-6.2-36,1.2c-5.1,3.6-9,8.7-11.4,14.5c-1.9,4.4-4.8,13.8-2.3,18.3
				c1.8-0.8,3.6-7,5.2-8.8c2.4-2.9,5.4-5.2,8.8-6.5c6.8-2.7,14.9-1.7,20.8,2.6c6,4.3,9.7,11.7,9.5,19.2c0,1.9-0.2,4.1,1.2,5.3
				c1.4,1.2,3.6,0.7,5.3,0c5.2-1.8,10.3-3.7,15.5-5.5c1.8-0.7,3.8-1.4,5-2.9c2.4-3.1,0.7-7.7-1.1-11.3
				C566.9,166.5,560.9,156.3,551.5,150.5z"/>
		</g>
		<g>
			<path fill="#FEA086" d="M460.7,182.7c1.1-2.2,1.9-4.5,1.8-6.9c-0.1-2.4-1.4-4.9-3.5-5.9c-2.2-1-5.2,0-6,2.3
				c0.1-2.3-2-4.5-4.3-4.5c-2.3,0-4.7,2.2-4.6,4.5c-0.4-2.4-2.4-4.4-4.8-4.8c-2.4-0.5-5,0.7-6.3,2.7c-2.3-3-7.5-1.9-9.8,1.1
				c-2.3,3-2.3,7.2-2,10.9c1.1,11.7,7,23.3,14,32.8c7,1.7,14.6,1.3,21.4-0.9c2.3-0.8,4.8-2,5.4-4.4c-5.5-5-7.3-13.6-4.6-20.5
				C458.4,186.9,459.7,184.9,460.7,182.7z"/>
		</g>
		<g>
			<g>
				<g>
					
						<ellipse transform="matrix(2.393728e-002 -0.9997 0.9997 2.393728e-002 275.3459 663.865)" fill="#3E3D3C" cx="477.6" cy="190.9" rx="8.4" ry="4.5"/>
				</g>
				<g>
					<polygon fill="#3E3D3C" points="388.1,213.2 477.4,199.3 477.9,182.5 389.2,164.4 					"/>
				</g>
				<g>
					
						<ellipse transform="matrix(2.392929e-002 -0.9997 0.9997 2.392929e-002 190.618 572.8212)" fill="#3E3D3C" cx="388.7" cy="188.8" rx="24.4" ry="10.2"/>
				</g>
				<g>
					<path fill="#FFFFFF" d="M389.1,170.7C389.1,170.7,389,170.7,389.1,170.7c-4.4,0-8,7.8-8.2,17.9c-0.2,10.1,3,18.1,7.3,18.3
						c0,0,0.1,0,0.1,0c4.3,0,7.9-7.8,8.1-17.9l-0.4,0l0.4,0C396.7,178.8,393.4,170.8,389.1,170.7z M395.6,189
						c-0.2,9.3-3.6,17.1-7.3,17.1c0,0,0,0-0.1,0c-3.8-0.1-6.8-8.1-6.6-17.4c0.2-9.3,3.6-17.1,7.3-17.1c0,0,0,0,0.1,0
						C392.8,171.6,395.8,179.6,395.6,189z"/>
				</g>
			</g>
			<g>
				<g>
					
						<ellipse transform="matrix(2.393370e-002 -0.9997 0.9997 2.393370e-002 185.7658 567.6086)" fill="#3E3D3C" cx="383.6" cy="188.7" rx="17.5" ry="10.9"/>
				</g>
				<g>
					<polygon fill="#3E3D3C" points="287.8,220.4 383.1,206.2 384,171.2 289.4,152.3 					"/>
				</g>
				<g>
					
						<ellipse transform="matrix(2.393347e-002 -0.9997 0.9997 2.393347e-002 95.3595 470.4657)" fill="#3E3D3C" cx="288.6" cy="186.4" rx="34.1" ry="14.2"/>
				</g>
				<g>
					<path fill="#FFFFFF" d="M289.3,158c0,0-0.1,0-0.1,0c-6.8,0-12.4,12.3-12.8,28.1c-0.4,15.9,4.7,28.5,11.5,28.7c0,0,0.1,0,0.1,0
						c6.8,0,12.4-12.3,12.8-28.1C301.2,170.8,296.1,158.2,289.3,158z M299.6,186.7c-0.4,14.6-5.6,26.9-11.5,26.9c0,0-0.1,0-0.1,0
						c-5.9-0.1-10.7-12.7-10.3-27.4c0.4-14.6,5.6-26.9,11.5-26.9c0,0,0.1,0,0.1,0C295.2,159.4,299.9,171.9,299.6,186.7z"/>
				</g>
			</g>
			<g>
				<g>
					<path fill="#FFFFFF" d="M288.2,172.7C288.2,172.7,288.1,172.7,288.2,172.7c-5,0-9,12.9-9.2,13.4l0,0.1l0,0.1
						c0.1,0.6,3.6,13.7,8.5,13.8c0,0,0,0,0.1,0c4.9,0,9-12.9,9.1-13.4l0-0.1l0-0.1C296.6,185.9,293.1,172.8,288.2,172.7z
						 M287.6,199.4C287.6,199.4,287.6,199.4,287.6,199.4c-3.7-0.1-6.9-9.5-7.9-13.2c1.2-3.7,4.8-12.8,8.4-12.8c0,0,0,0,0.1,0
						c3.6,0.1,6.9,9.5,7.9,13.2C294.9,190.2,291.2,199.4,287.6,199.4z"/>
				</g>
				<g>
					
						<ellipse transform="matrix(2.394503e-002 -0.9997 0.9997 2.394503e-002 94.6373 469.6905)" fill="#FFFFFF" cx="287.9" cy="186.4" rx="6.3" ry="2.3"/>
				</g>
			</g>
		</g>
		<g>
			<path fill="#FEA086" d="M463.4,183.3c-1.9,0.1-3.5,1.7-4.3,3.5c-0.9,1.7-1.3,3.7-2.2,5.4c-1.2,2.1-3.1,3.7-5,5.2
				c-1.9,1.5-3.9,3.1-5.1,5.2s-1.6,4.9-0.2,6.9c1.7,2.5,6.1,4.7,9.1,4.5c3.2-0.2,6.1-1.9,7.1-5.3c1.1-3.7,1.4-6.9,3.2-10.5
				c1.8-3.6,3.5-7.8,2-11.5C467.2,184.8,465.4,183.2,463.4,183.3z"/>
		</g>
		<g>
			<path fill="#FEA086" d="M320.3,207.1c4.1,3,8,6.2,12.3,9C328.7,212.7,324.8,209.4,320.3,207.1z"/>
			<path fill="#FEA086" d="M379.7,237.3c-0.8-11.9-1.6-23.9-2.4-35.8c-0.2-3.6-0.6-7.5-3.4-10.2c-1.3-1.2-3.1-1.8-4.9-1.4
				c-3.5,0.8-4.2,4.5-3.8,7.5c0.4,2.5,1.3,4.9,1.3,7.5c0,2.5-1,4.7-3.6,5c-6.1-5-12.2-10-18.3-15c-3.4-2.8-7-5.7-11.4-6.7
				c-2.9-0.6-6.6,0.1-7.3,3.3c-0.2,1.2,0.1,2.5,0.8,3.5c1.4,2.3,3.8,3.3,6.1,4.6c1.8,1,4,2.4,4.9,4.3c-5.4-4.5-11.3-8.4-17.6-11.6
				c-2-1-4-1.9-6.2-2.1c-0.9-0.1-1.9,0-2.8,0.2c-2.5,0.6-3.9,3.2-3.1,5.6c0.3,1,0.9,2,1.6,2.8c1.5,1.8,3.5,3.2,5.5,4.5
				c1.8,1.2,3.5,2.4,5.2,3.7c4.5,2.3,8.4,5.6,12.3,9c-4.2-2.8-8.2-6-12.3-9c-0.1,0-0.2-0.1-0.3-0.1c-3.2-1.5-6.8-2.5-10.3-2.4
				c-3.1,0.1-4.8,3.6-2.9,6.1c1.2,1.6,2.9,3,4.5,4.3c3.1,2.4,6.3,4.7,9.5,7c0.9,0.3,1.9,0.9,2.7,1.4c3.1,2.1,6.3,4.2,9.4,6.2
				c-4.2-2.3-8.2-4.9-12.1-7.6c-1.3-0.4-2.5-0.4-3.6,0.6c-1.1,1-1.4,2.5-1,3.9c2.8,10.3,12.4,16.4,21.8,20.9
				c5.7,2.8,11.7,5.5,16.9,9.2c5.9,4.3,23.4,13.8,28.9,9c0.7-0.6,7.9-10.5,8.6-11.3C396.2,250,380.1,243.3,379.7,237.3z"/>
			<path fill="#FEA086" d="M323.4,223.3c-0.8-0.5-1.7-1.1-2.7-1.4c3.9,2.7,7.9,5.3,12.1,7.6C329.7,227.5,326.5,225.4,323.4,223.3z"
				/>
		</g>
		<g>
			<path fill="#FEA086" d="M432.2,169.8c-0.7-0.8-1.8-1-2.8-0.9c-1.7,0.1-6.9,1.7-4.8,2.8c1.9,1.1,2,5.1,3.4,6.3
				c1,0.8,2.4,1.2,3.4,0.6c0.8-0.5,1.3-1.4,1.5-2.4s0.2-2.1,0.1-3.1C433,171.9,432.9,170.6,432.2,169.8z"/>
		</g>
		<g>
			<path fill="#FEA086" d="M438.7,170.1c-1.4,0-5.6,0.5-5.8,2.3c-0.1,0.9,1.1,2.1,1.5,2.8c0.6,1.1,1,2.3,1.3,3.5
				c0.3,1.3,0.4,2.6,0.8,3.8c0.5,1.2,1.3,2.4,2.6,2.7c1.5,0.4,3.1-0.6,3.9-1.9c0.8-1.3,1.1-2.9,1.3-4.5c0.2-1.8,0.5-3.7-0.3-5.3
				C443.2,171.4,440.9,170.2,438.7,170.1z"/>
		</g>
		<g>
			<path fill="#FEA086" d="M447.7,172.3c-1.4,0.2-3.3,1.5-3.2,3.1c0,0.7,0.6,1.4,0.8,2.1c0.2,0.9,0.3,1.9,0.4,2.8
				c0.2,1.7,0.6,3.7,2.2,4.5c1.3,0.7,3.1,0.2,4.1-0.9c1-1.1,1.5-2.6,1.6-4.1c0.2-1.8-0.1-3.8-1.2-5.3
				C451.4,173.1,449.5,172,447.7,172.3z"/>
		</g>
		<g>
			<path fill="#FEA086" d="M456.8,173.3c-1.3-0.2-2.8,0-3.8,1c-2,2,0.7,6.5,2.6,7.6c1.5,0.9,3.5,0.9,4.8-0.2
				c1.5-1.2,1.8-3.5,0.9-5.2C460.6,174.7,458.7,173.6,456.8,173.3z"/>
		</g>
		<g>
			<path fill="#D2E4FC" d="M632,258.7c-10.2-7.2-25.1-9.8-41.9-9.7c-5.2,0-10.5,0.3-16,0.8C525,254.3,481,283,481,283
				s-77.3,2-37.1,47.5c38.5,43.7,215.9-26.8,197.8-61C639.3,265.1,636,261.5,632,258.7z"/>
		</g>
		<g>
			<path fill="#D2E4FC" d="M389.2,237.3c-14.4,0.1-28.3,14.7-23.9,28.4c4.4,13.7,15.4,24.3,26.9,33.1c24.2,18.7,60.2,44,82.8,44.8
				c14.3,0.5,31.9-31.8,24.9-40.7C472,267.8,410.1,237.1,389.2,237.3z"/>
		</g>
		<g>
			<g>
				<path fill="#3E3D3C" d="M389.2,235.7c-8.3,0.1-16.7,4.6-21.8,11.7c-4.3,5.9-5.5,12.6-3.6,18.8c4.8,15.1,17.2,26,27.4,33.9l2-2.5
					c-9.9-7.6-21.7-18.1-26.3-32.3c-1.7-5.2-0.6-10.9,3.1-16c4.5-6.2,12.1-10.3,19.3-10.4c8.8-0.1,25.6,5.7,43.9,15.1
					c20.6,10.6,39.6,23.8,53.7,37.2l2.2-2.3c-30.1-28.7-79.7-53.2-99.6-53.2C389.4,235.7,389.3,235.7,389.2,235.7z"/>
			</g>
		</g>
		<g>
			<g>
				<path fill="#3E3D3C" d="M480.5,281.4c-0.1,0-0.3,0-0.4,0l0.1,3.2c0.5,0,0.8,0,0.8,0l0.5,0l0.4-0.2c0.4-0.3,44.3-28.6,92.4-33
					l-0.3-3.2C527.5,252.5,485,278.6,480.5,281.4z"/>
			</g>
		</g>
		<g>
			<g>
				<path fill="#3E3D3C" d="M475.2,342.1l-0.2,0l0,0c-3.5-0.1-7.5-0.9-12-2.3c-2.1-0.6-4.2-1.3-6.2-2.2c-16.3-6.5-37.2-19.6-63.7-40
					c-9.9-7.6-21.7-18.1-26.3-32.3l-3,1c4.8,15.1,17.2,26,27.4,33.9c26.8,20.6,47.8,33.9,64.4,40.4c2,0.9,4.2,1.7,6.5,2.3
					c4.8,1.5,9.1,2.3,12.8,2.4c4,0.4,8.1,0.6,12.4,0.6c32,0,70.3-11.4,97.6-23.2l-1.3-2.9C553,333,508.5,345.7,475.2,342.1z"/>
			</g>
		</g>
		<g>
			<g>
				<path fill="#3E3D3C" d="M335,230.6c-5.3-2.8-9.7-5.8-13.5-9.1c-0.3-0.3-0.8-0.3-1.1,0.1c-0.3,0.3-0.3,0.8,0.1,1.1
					c3.9,3.4,8.4,6.4,13.8,9.3c0.1,0.1,0.2,0.1,0.4,0.1c0.3,0,0.6-0.2,0.7-0.4C335.5,231.3,335.4,230.8,335,230.6z"/>
			</g>
		</g>
		<g>
			<g>
				<path fill="#3E3D3C" d="M332.8,216.1c-5.4-4.3-12.9-10.1-18.8-13.4c-0.4-0.2-0.9-0.1-1.1,0.3c-0.2,0.4-0.1,0.9,0.3,1.1
					c5.8,3.2,13.1,9,18.5,13.2c1.3,1,2.6,2,3.6,2.8c0.1,0.1,0.3,0.2,0.5,0.2c0.2,0,0.5-0.1,0.6-0.3c0.3-0.4,0.2-0.9-0.1-1.1
					C335.3,218.1,334.1,217.1,332.8,216.1z"/>
			</g>
		</g>
		<g>
			<g>
				<path fill="#3E3D3C" d="M340.1,204.8c-5.3-4-11.8-8.9-16.8-13c-0.3-0.3-0.8-0.2-1.1,0.1c-0.3,0.3-0.2,0.8,0.1,1.1
					c5,4.1,11.6,9,16.9,13c2.3,1.8,4.4,3.3,6.1,4.6c0.1,0.1,0.3,0.2,0.5,0.2c0.2,0,0.5-0.1,0.6-0.3c0.3-0.4,0.2-0.9-0.1-1.1
					C344.5,208.1,342.4,206.5,340.1,204.8z"/>
			</g>
		</g>
	</g>
	<g>
		<g>
			<g>
				<rect x="676" y="146.6" fill="#FFFFFF" width="298.5" height="272.5"/>
			</g>
			<g>
				<g>
					<polygon fill="#3E3D3C" points="674.4,420.7 807.2,420.7 807.2,417.5 677.6,417.5 677.6,148.2 972.9,148.2 972.9,417.5 
						863,417.5 863,420.7 976.1,420.7 976.1,145 674.4,145 					"/>
				</g>
			</g>
			<g>
				<g>
					<rect x="676" y="187.9" fill="#3E3D3C" width="298.5" height="3.2"/>
				</g>
			</g>
			<g>
				<rect x="691.1" y="155.1" fill="#E94531" width="171.9" height="24.6"/>
			</g>
			<g>
				<g>
					<g>
						
							<rect x="950.5" y="149" transform="matrix(-0.6688 -0.7434 0.7434 -0.6688 1464.1396 987.0236)" fill="#3E3D3C" width="2.8" height="36.8"/>
					</g>
				</g>
				<g>
					<g>
						
							<rect x="933.5" y="166" transform="matrix(-0.7433 -0.6689 0.6689 -0.7433 1547.5104 928.5995)" fill="#3E3D3C" width="36.8" height="2.8"/>
					</g>
				</g>
			</g>
			<g>
				<path fill="#3E3D3C" d="M917.8,153.5c-7.7,0-13.9,6.2-13.9,13.9s6.2,13.9,13.9,13.9c7.7,0,13.9-6.2,13.9-13.9
					S925.5,153.5,917.8,153.5z M917.8,178.1c-5.9,0-10.7-4.8-10.7-10.7s4.8-10.7,10.7-10.7s10.7,4.8,10.7,10.7
					S923.7,178.1,917.8,178.1z"/>
			</g>
			<g>
				<g>
					<rect x="871.5" y="178.3" fill="#3E3D3C" width="29.1" height="2.8"/>
				</g>
			</g>
		</g>
		<g>
			<path fill="#3E3D3C" d="M892.2,229.3h75.2v-18.9h-75.2V229.3z M895.9,214h67.9v11.6h-67.9V214z"/>
		</g>
		<g>
			<path fill="#3E3D3C" d="M892.2,257.6h75.2v-18.9h-75.2V257.6z M895.9,242.3h67.9v11.6h-67.9V242.3z"/>
		</g>
		<g>
			<path fill="#3E3D3C" d="M892.2,285.8h75.2v-18.9h-75.2V285.8z M895.9,270.6h67.9v11.6h-67.9V270.6z"/>
		</g>
		<g>
			<path fill="#3E3D3C" d="M892.2,342.4h75.2v-18.9h-75.2V342.4z M895.9,327.1h67.9v11.6h-67.9V327.1z"/>
		</g>
		<g>
			<path fill="#3E3D3C" d="M892.2,370.7h75.2v-18.9h-75.2V370.7z M895.9,355.4h67.9V367h-67.9V355.4z"/>
		</g>
		<g>
			<path fill="#3E3D3C" d="M892.2,398.9h75.2V380h-75.2V398.9z M895.9,383.7h67.9v11.6h-67.9V383.7z"/>
		</g>
		<g>
			<path fill="#3E3D3C" d="M689.2,398.9h184.1V210.3H689.2V398.9z M692.9,214h176.7v181.2H692.9V214z"/>
		</g>
	</g>
	<g>
		<g>
			<rect x="219" y="370.1" fill="#FFFFFF" width="233" height="105"/>
		</g>
		<g>
			<rect x="226.9" y="376.8" fill="#33A954" width="153.7" height="11.5"/>
		</g>
		<g>
			<path fill="#3E3D3C" d="M217.4,476.7h236.2V368.5H217.4V476.7z M220.6,371.7h229.8v101.8H220.6V371.7z"/>
		</g>
		<g>
			<g>
				<rect x="219" y="393.8" fill="#3E3D3C" width="233" height="3.2"/>
			</g>
		</g>
		<g>
			<rect x="229.3" y="403.7" fill="#3E3D3C" width="117.9" height="5.3"/>
		</g>
		<g>
			<rect x="229.3" y="420" fill="#3E3D3C" width="213.4" height="5.3"/>
		</g>
		<g>
			<rect x="229.3" y="436.9" fill="#3E3D3C" width="213.4" height="5.3"/>
		</g>
		<g>
			<rect x="229.3" y="453.8" fill="#3E3D3C" width="213.4" height="5.3"/>
		</g>
		<g>
			<g>
				<g>
					
						<rect x="433.5" y="372.1" transform="matrix(-0.6689 -0.7434 0.7434 -0.6689 441.7191 961.9493)" fill="#3E3D3C" width="3.2" height="21.1"/>
				</g>
			</g>
			<g>
				<g>
					
						<rect x="424.6" y="381" transform="matrix(-0.7433 -0.6689 0.6689 -0.7433 502.5822 958.0432)" fill="#3E3D3C" width="21.1" height="3.2"/>
				</g>
			</g>
		</g>
		<g>
			<path fill="#3E3D3C" d="M415.6,374c-4.8,0-8.6,3.9-8.6,8.6s3.9,8.6,8.6,8.6s8.6-3.9,8.6-8.6S420.3,374,415.6,374z M415.6,388
				c-3,0-5.4-2.4-5.4-5.4c0-3,2.4-5.4,5.4-5.4c3,0,5.4,2.4,5.4,5.4C421,385.6,418.6,388,415.6,388z"/>
		</g>
		<g>
			<g>
				<rect x="389.1" y="388" fill="#3E3D3C" width="16.6" height="3.2"/>
			</g>
		</g>
	</g>
	<g>
		<g>
			<path fill="#FCBC00" d="M464.2,527.6H303.9c-10.3,0-18.6,8.3-18.6,18.6l0,0c0,10.3,8.3,18.6,18.6,18.6h160.3
				c10.3,0,18.6-8.3,18.6-18.6l0,0C482.8,535.9,474.5,527.6,464.2,527.6z"/>
		</g>
		<g>
			<g>
				<path fill="#3E3D3C" d="M434.1,510.9c-8.4,0-15.2,6.8-15.2,15.2c0,8.4,6.8,15.2,15.2,15.2s15.2-6.8,15.2-15.2
					C449.4,517.8,442.5,510.9,434.1,510.9z M434.1,538.2c-6.6,0-12-5.4-12-12c0-6.6,5.4-12,12-12s12,5.4,12,12
					C446.2,532.8,440.8,538.2,434.1,538.2z"/>
			</g>
			<g>
				<g>
					
						<rect x="439.5" y="544.1" transform="matrix(-0.7233 -0.6905 0.6905 -0.7233 404.203 1253.4219)" fill="#3E3D3C" width="27.5" height="3.2"/>
				</g>
			</g>
		</g>
	</g>
	<g>
		<polygon fill="#3E3D3C" points="453.6,476.8 463.4,431.3 452.1,434.3 		"/>
	</g>
</g>
</svg>
